# AST/ASF file generated using VICON BodyLanguage
# -----------------------------------------------
:version 1.10
:name VICON
:units
  mass 1.0
  length 0.45
  angle deg
:documentation
   .ast/.asf automatically generated from VICON data using
   VICON BodyBuilder and BodyLanguage model FoxedUp or BRILLIANT.MOD
:root
   order TX TY TZ RX RY RZ
   axis XYZ
   position 0 0 0  
   orientation 0 0 0 
:bonedata
  begin
     id 1 
     name lhipjoint
     direction 0.643824 -0.71708 0.266994 
     length 2.52133 
     axis 0 0 0  XYZ
  end
  begin
     id 2 
     name lfemur
     direction 0.34202 -0.939693 0  
     length 7.51824  
     axis 0 0 20  XYZ
    dof rx ry rz
    limits (-160.0 20.0)
           (-70.0 70.0)
           (-60.0 70.0)
  end
  begin
     id 3 
     name ltibia
     direction 0.34202 -0.939693 0   
     length 7.3685   
     axis 0 0 20   XYZ
    dof rx
    limits (-10.0 170.0)
  end
  begin
     id 4 
     name lfoot
     direction 0.105419 -0.289636 0.951314   
     length 2.20972   
     axis -90 7.62852e-016 20   XYZ
    dof rx rz
    limits (-45.0 90.0)
           (-70.0 20.0)
  end
  begin
     id 5 
     name ltoes
     direction 1.53549e-011 -4.21833e-011 1   
     length 1.10139   
     axis -90 7.62852e-016 20   XYZ
    dof rx
    limits (-90.0 20.0)
  end
  begin
     id 6 
     name rhipjoint
     direction -0.608823 -0.743445 0.276811   
     length 2.43192  
     axis 0 0 0  XYZ 
  end
  begin
     id 7 
     name rfemur
     direction -0.34202 -0.939693 0   
     length 7.69715   
     axis 0 0 -20   XYZ
    dof rx ry rz
    limits (-160.0 20.0)
           (-70.0 70.0)
           (-70.0 60.0)
  end
  begin
     id 8 
     name rtibia
     direction -0.34202 -0.939693 0   
     length 7.44924   
     axis 0 0 -20   XYZ
    dof rx
    limits (-10.0 170.0)
 end
 begin
     id 9 
     name rfoot
     direction -0.103614 -0.284677 0.953007   
     length 2.22623  
     axis -90 -7.62852e-016 -20   XYZ
    dof rx rz
    limits (-45.0 90.0)
           (-20.0 70.0)
  end
  begin
     id 10 
     name rtoes
     direction -1.53537e-011 -4.22026e-011 1   
     length 1.11   
     axis -90 -7.62852e-016 -20   XYZ
    dof rx
    limits (-90.0 20.0)
  end
  begin
     id 11 
     name lowerback
     direction -0.0101212 0.99662 -0.0815298   
     length 2.08277   
     axis 0 0 0   XYZ
    dof rx ry rz
    limits (-20.0 45.0)
           (-30.0 30.0)
           (-30.0 30.0)
  end
  begin
     id 12 
     name upperback
     direction 0.024314 0.999591 -0.0150645   
     length 2.08524   
     axis 0 0 0   XYZ
    dof rx ry rz
    limits (-20.0 45.0)
           (-30.0 30.0)
           (-30.0 30.0)
  end
  begin
     id 13 
     name thorax
     direction 0.0285959 0.999323 0.0231357   
     length 2.09645   
     axis 0 0 0   XYZ
    dof rx ry rz
    limits (-20.0 45.0)
           (-30.0 30.0)
           (-30.0 30.0)
  end
  begin
     id 14 
     name lowerneck
     direction -0.065512 0.979301 0.191515   
     length 1.63798   
     axis 0 0 0   XYZ
    dof rx ry rz
    limits (-20.0 45.0)
           (-30.0 30.0)
           (-30.0 30.0)
  end
  begin
     id 15 
     name upperneck
     direction 0.0498479 0.98191 -0.182667   
     length 1.68731   
     axis 0 0 0   XYZ
    dof rx ry rz
    limits (-20.0 45.0)
           (-30.0 30.0)
           (-30.0 30.0)
  end
  begin
     id 16
     name head
     direction 0.0230358 0.996257 -0.0833175  
     length 1.69785  
     axis 0 0 0   XYZ
    dof rx ry rz
    limits (-20.0 45.0)
           (-30.0 30.0)
           (-30.0 30.0)
  end
  begin
     id 17 
     name lclavicle
     direction 0.967963 0.201165 -0.150269  
     length 3.63976  
     axis 0 0 0   XYZ
    dof ry rz
    limits (-20.0 10.0)
           (0.0 20.0)
  end
  begin
     id 18 
     name lhumerus
     direction 1 -4.48954e-011 -2.92837e-028   
     length 5.32462   
     axis 180 -30 -90   XYZ
    dof rx ry rz
    limits (-60.0 90.0)
           (-90.0 90.0)
           (-90.0 90.0)
  end
  begin
     id 19
     name lradius
     direction 1 -4.48958e-011 -6.39511e-027   
     length 3.48402   
     axis 180 -30 -90   XYZ
    dof rx
    limits (-10.0 170.0)
  end
  begin
     id 20
     name lwrist
     direction 1 -4.48975e-011 -1.1413e-026   
     length 1.74201   
     axis 6.88575e-015 90 90   XYZ
    dof ry
    limits (-180.0 0.0)
 end
  begin
     id 21 
     name lhand
     direction 1 -4.48899e-011 -2.28192e-026   
     length 0.572476   
     axis 1.45643e-014 90 90   XYZ
    dof rx rz
    limits (-90.0 90.0)
           (-45.0 45.0)
  end
  begin
     id 22 
     name lfingers
     direction 1 -4.49155e-011 -4.5684e-026   
     length 0.461545   
     axis 2.91283e-014 90 90   XYZ
    dof rx
    limits (0.0 90.0)
  end
  begin
     id 23
     name lthumb
     direction 0.707107 -6.34943e-011 0.707107   
     length 0.662688   
     axis -90 45 -2.25915e-014   XYZ
    dof rx rz
    limits (-45.0 45.0)
           (-45.0 45.0)
  end
  begin
     id 24 
     name rclavicle
     direction -0.964103 0.264019 -0.0282629   
     length 3.54491  
     axis 0 0 0   XYZ 
    dof ry rz
    limits (-10.0 20.0)
           (-20.0 0.0)
  end
  begin
     id 25 
     name rhumerus
     direction -1 -4.48964e-011 -2.45032e-027  
     length 5.33589   
     axis 180 30 90   XYZ
    dof rx ry rz
    limits (-90.0 60.0)
           (-90.0 90.0)
           (-90.0 90.0)
  end
  begin
     id 26 
     name rradius
     direction -1 -4.48987e-011 -1.55093e-027   
     length 3.64134   
     axis 180 30 90   XYZ
    dof rx
    limits (-10.0 170.0)
  end
  begin
     id 27 
     name rwrist
     direction -1 -4.4897e-011 -1.14128e-026   
     length 1.82067   
     axis 6.88575e-015 -90 -90   XYZ
    dof ry
    limits (-180.0 0.0)
  end
  begin
     id 28
     name rhand
     direction -1 -4.49021e-011 -2.28301e-026   
     length 0.734811   
     axis 1.45643e-014 -90 -90   XYZ
    dof rx rz
    limits (-90.0 90.0)
           (-45.0 45.0)
  end
  begin
     id 29
     name rfingers
     direction -1 -4.48862e-011 -4.56319e-026   
     length 0.592424   
     axis 2.91283e-014 -90 -90   XYZ
    dof rx
    limits (0.0 90.0)
  end
  begin
     id 30
     name rthumb
     direction -0.707107 -6.34978e-011 0.707107   
     length 0.850605   
     axis -90 -45 2.25915e-014   XYZ
    dof rx rz
    limits (-45.0 45.0)
           (-45.0 45.0)
  end
:hierarchy
  begin
    root lhipjoint rhipjoint lowerback
    lhipjoint lfemur
    lfemur ltibia
    ltibia lfoot
    lfoot ltoes
    rhipjoint rfemur
    rfemur rtibia
    rtibia rfoot
    rfoot rtoes
    lowerback upperback
    upperback thorax
    thorax lowerneck lclavicle rclavicle
    lowerneck upperneck
    upperneck head
    lclavicle lhumerus
    lhumerus lradius
    lradius lwrist
    lwrist lhand lthumb
    lhand lfingers
    rclavicle rhumerus
    rhumerus rradius
    rradius rwrist
    rwrist rhand rthumb
    rhand rfingers
  end

#!OML:ASF F:\VICON\USERDATA\INSTALL\rory3\rory3.ASF
:FULLY-SPECIFIED
:DEGREES
1
root -0.69914 17.6671 -2.24341 4.70291 -6.43291 1.2055
lowerback 0.203612 -1.04825 -4.24865
upperback 0.412356 -1.40357 1.76005
thorax 0.456432 -0.722832 4.19308
lowerneck -21.5241 -8.78094 -13.4704
upperneck 18.8956 -9.72499 7.95041
head 10.6966 -4.5369 3.47819
rclavicle -1.78906e-014 2.70347e-014
rhumerus -29.3334 -17.2726 -76.9092
rradius 28.1624
rwrist 24.2214
rhand -20.3101 1.30314
rfingers 7.12502
rthumb 6.04039 -28.5908
lclavicle -1.78906e-014 2.70347e-014
lhumerus -33.6775 17.0029 78.7491
lradius 27.0831
lwrist -7.92557
lhand -7.92008 27.2255
lfingers 7.12502
lthumb 17.9857 56.4138
rfemur -14.3611 6.99935 11.9764
rtibia 33.4165
rfoot -20.1979 -1.12127
rtoes 2.96515
lfemur -9.17891 0.380238 -19.4962
ltibia 27.4184
lfoot -17.6062 12.3594
ltoes -21.3421
2
root -0.697659 17.6689 -2.2379 4.78926 -6.4267 1.33847
lowerback 0.183617 -1.05855 -4.39624
upperback 0.301147 -1.41762 1.76746
thorax 0.358586 -0.725659 4.28513
lowerneck -21.531 -8.68633 -13.613
upperneck 19.0448 -9.57409 8.02809
head 10.7472 -4.47064 3.55727
rclavicle -1.2424e-015 2.94201e-014
rhumerus -29.5643 -17.1565 -76.7911
rradius 28.3374
rwrist 23.9357
rhand -20.2669 1.4026
rfingers 7.12502
rthumb 6.08212 -28.4901
lclavicle -1.2424e-015 2.94201e-014
lhumerus -33.8273 17.1476 78.7129
lradius 26.9675
lwrist -8.31105
lhand -7.32689 27.6306
lfingers 7.12502
lthumb 18.5564 56.7656
rfemur -14.4429 7.00275 11.8076
rtibia 33.4215
rfoot -20.2307 -1.12201
rtoes 2.95873
lfemur -9.22851 0.253951 -19.6487
ltibia 27.3059
lfoot -17.5809 12.41
ltoes -21.1052
3
root -0.69666 17.6702 -2.23446 4.8543 -6.40392 1.33758
lowerback 0.261928 -1.08669 -4.44654
upperback 0.194089 -1.45968 1.82862
thorax 0.211891 -0.740996 4.37985
lowerneck -21.5723 -8.52674 -13.5794
upperneck 19.1691 -9.33007 7.89819
head 10.7621 -4.37243 3.54832
rclavicle -1.23246e-014 4.37326e-015
rhumerus -29.736 -17.05 -76.7029
rradius 28.4585
rwrist 23.7712
rhand -20.3378 1.45148
rfingers 7.12502
rthumb 6.01367 -28.4432
lclavicle -1.23246e-014 4.37326e-015
lhumerus -34.0136 17.2793 78.7069
lradius 26.9507
lwrist -8.666
lhand -6.82914 28.0666
lfingers 7.12502
lthumb 19.0351 57.1551
rfemur -14.506 7.01874 11.8012
rtibia 33.4511
rfoot -20.2835 -1.17482
rtoes 2.82108
lfemur -9.28303 0.327174 -19.6368
ltibia 27.2275
lfoot -17.587 12.3129
ltoes -21.211
4
root -0.695994 17.6704 -2.23112 4.89959 -6.43704 1.47144
lowerback 0.309516 -1.07527 -4.59436
upperback 0.114351 -1.44759 1.81938
thorax 0.105271 -0.730625 4.45606
lowerneck -21.7125 -8.40815 -13.481
upperneck 19.3459 -9.13887 7.71144
head 10.8144 -4.29803 3.4966
rclavicle -1.3418e-015 1.98785e-015
rhumerus -29.86 -17.1307 -76.615
rradius 28.5119
rwrist 23.6658
rhand -20.445 1.50883
rfingers 7.12502
rthumb 5.91019 -28.3887
lclavicle -1.3418e-015 1.98785e-015
lhumerus -34.1709 17.4532 78.6923
lradius 26.8027
lwrist -8.62763
lhand -7.40279 27.2334
lfingers 7.12502
lthumb 18.4834 56.3753
rfemur -14.5841 7.10898 11.6349
rtibia 33.4701
rfoot -20.3372 -1.19892
rtoes 2.93267
lfemur -9.30362 0.268 -19.7976
ltibia 27.1699
lfoot -17.6057 12.3924
ltoes -21.1431
5
root -0.695637 17.6708 -2.22816 4.88691 -6.43868 1.48603
lowerback 0.378768 -1.06949 -4.61326
upperback 0.0948062 -1.44314 1.81905
thorax 0.0462583 -0.726401 4.46818
lowerneck -21.7536 -8.27799 -13.2357
upperneck 19.3465 -8.95648 7.41747
head 10.772 -4.23058 3.38161
rclavicle -3.64273e-014 2.34566e-014
rhumerus -29.9393 -17.035 -76.6289
rradius 28.6016
rwrist 23.4726
rhand -20.7281 1.31297
rfingers 7.12502
rthumb 5.63686 -28.5921
lclavicle -3.64273e-014 2.34566e-014
lhumerus -34.2839 17.7273 78.5567
lradius 26.8413
lwrist -9.31945
lhand -6.90939 27.4669
lfingers 7.12502
lthumb 18.958 56.563
rfemur -14.5767 7.14025 11.6207
rtibia 33.476
rfoot -20.3229 -1.22157
rtoes 2.92616
lfemur -9.25933 0.224237 -19.8196
ltibia 27.149
lfoot -17.641 12.4233
ltoes -20.9321
6
root -0.695425 17.6701 -2.22581 4.91039 -6.45482 1.40548
lowerback 0.402278 -1.06348 -4.53751
upperback 0.099107 -1.43579 1.84692
thorax 0.0355181 -0.722521 4.45469
lowerneck -21.8057 -8.14935 -13.1644
upperneck 19.3346 -8.77783 7.36465
head 10.7502 -4.14901 3.38174
rclavicle -4.12478e-015 2.8625e-014
rhumerus -29.9609 -16.9881 -76.6614
rradius 28.6914
rwrist 23.3399
rhand -20.7815 1.32746
rfingers 7.12502
rthumb 5.58528 -28.5789
lclavicle -4.12478e-015 2.8625e-014
lhumerus -34.2661 18.0219 78.4235
lradius 26.8501
lwrist -10.1522
lhand -5.91597 28.2873
lfingers 7.12502
lthumb 19.9131 57.2871
rfemur -14.5851 7.19243 11.7117
rtibia 33.485
rfoot -20.3541 -1.23059
rtoes 3.00049
lfemur -9.26597 0.263009 -19.7274
ltibia 27.1419
lfoot -17.6658 12.3948
ltoes -20.862
7
root -0.694915 17.6686 -2.22156 4.90252 -6.4117 1.41129
lowerback 0.481454 -1.07005 -4.51131
upperback 0.0664111 -1.4481 1.83538
thorax -0.0421536 -0.725895 4.42998
lowerneck -21.8432 -7.98657 -13.1398
upperneck 19.3682 -8.5715 7.43143
head 10.7479 -4.04512 3.43883
rclavicle 3.01656e-014 2.42517e-014
rhumerus -30.1186 -16.9092 -76.6717
rradius 28.8716
rwrist 23.1119
rhand -20.7578 1.22587
rfingers 7.12502
rthumb 5.60823 -28.6799
lclavicle 3.01656e-014 2.42517e-014
lhumerus -34.3709 17.983 78.4
lradius 26.8582
lwrist -10.2592
lhand -6.03017 28.4535
lfingers 7.12502
lthumb 19.8034 57.4646
rfemur -14.5201 7.2528 11.7086
rtibia 33.4714
rfoot -20.4267 -1.23124
rtoes 3.54174
lfemur -9.24888 0.23165 -19.7292
ltibia 27.1647
lfoot -17.6458 12.3678
ltoes -20.9302
8
root -0.691579 17.6689 -2.21638 4.93673 -6.36242 1.40987
lowerback 0.475735 -1.07586 -4.45
upperback 0.062656 -1.45533 1.83232
thorax -0.0436283 -0.729384 4.392
lowerneck -22.0715 -7.86055 -13.0038
upperneck 19.4723 -8.38477 7.31951
head 10.7939 -3.95879 3.40539
rclavicle -2.2413e-014 7.55382e-015
rhumerus -30.1597 -16.9415 -76.6471
rradius 28.9712
rwrist 22.9094
rhand -20.6532 1.07096
rfingers 7.12502
rthumb 5.7092 -28.8321
lclavicle -2.2413e-014 7.55382e-015
lhumerus -34.3735 18.1886 78.3146
lradius 26.8897
lwrist -11.043
lhand -5.6793 28.5906
lfingers 7.12502
lthumb 20.1406 57.5665
rfemur -14.5203 7.22199 11.6976
rtibia 33.459
rfoot -20.4341 -1.24435
rtoes 3.50166
lfemur -9.26916 0.187039 -19.7406
ltibia 27.1721
lfoot -17.6297 12.3521
ltoes -20.7418
9
root -0.689861 17.6671 -2.20949 4.94399 -6.41299 1.36844
lowerback 0.514498 -1.05413 -4.39615
upperback 0.0580912 -1.42765 1.84761
thorax -0.074025 -0.714643 4.37829
lowerneck -22.3872 -7.69242 -12.7709
upperneck 19.6932 -8.14166 7.11008
head 10.8839 -3.85057 3.32992
rclavicle 1.76421e-014 3.97569e-016
rhumerus -30.2038 -16.9443 -76.6488
rradius 29.0262
rwrist 22.7733
rhand -20.6897 1.05871
rfingers 7.12502
rthumb 5.67396 -28.8453
lclavicle 1.76421e-014 3.97569e-016
lhumerus -34.3829 18.1535 78.3483
lradius 26.8565
lwrist -10.9484
lhand -6.24717 27.902
lfingers 7.12502
lthumb 19.5947 56.9345
rfemur -14.5129 7.32595 11.7326
rtibia 33.4543
rfoot -20.4733 -1.30936
rtoes 3.38674
lfemur -9.22186 0.20201 -19.7177
ltibia 27.1679
lfoot -17.647 12.4225
ltoes -20.9099
10
root -0.686404 17.6662 -2.19507 4.95243 -6.51638 1.45206
lowerback 0.427697 -1.01749 -4.41012
upperback 0.0773489 -1.37511 1.79663
thorax -0.0121448 -0.69026 4.33122
lowerneck -22.6334 -7.50776 -12.6394
upperneck 19.8178 -7.8872 7.06106
head 10.9379 -3.7267 3.33274
rclavicle -1.16786e-014 1.51076e-014
rhumerus -30.1836 -17.0937 -76.6127
rradius 28.9516
rwrist 22.7799
rhand -20.9688 1.38929
rfingers 7.12502
rthumb 5.40446 -28.5218
lclavicle -1.16786e-014 1.51076e-014
lhumerus -34.3238 17.9749 78.4486
lradius 26.6634
lwrist -10.2243
lhand -6.28512 27.4426
lfingers 7.12502
lthumb 19.5582 56.4788
rfemur -14.4932 7.31003 11.6085
rtibia 33.4547
rfoot -20.485 -1.20799
rtoes 3.1642
lfemur -9.17868 0.178711 -19.8466
ltibia 27.1644
lfoot -17.7248 12.5212
ltoes -20.7775
